<?xml version="1.0" encoding="UTF-8"?>
<svg id="Layer_1" data-name="Layer 1" xmlns="http://www.w3.org/2000/svg" viewBox="0 0 1722 629">
  <defs>
    <style>
      .cls-1 {
        fill: #24292d;
      }

      .cls-1, .cls-2 {
        stroke-width: 0px;
      }

      .cls-2 {
        fill: #2fbb4f;
      }
    </style>
  </defs>
  <path class="cls-2" d="m408.43,249.4c0-94.45-76.57-171.02-171.02-171.02S66.39,154.94,66.39,249.4c0,0-.04,2.07.15,5.93.34,9.84,1.46,19.47,3.39,28.82,9.37,53.93,43.5,162.67,167.48,268.85,123.98-106.18,158.11-214.93,167.48-268.85,1.93-9.35,3.05-18.98,3.39-28.82.19-3.85.15-5.93.15-5.93Zm-171.02,147.37c-80.32,0-145.43-65.11-145.43-145.43S157.1,105.91,237.41,105.91s145.43,65.11,145.43,145.43-65.11,145.43-145.43,145.43Z"/>
  <path class="cls-2" d="m272.54,282.24c-7.84,7.59-18.21,12.78-30.23,13.9-23.34,2.19-45.51-12.6-52.41-35.01-9.34-30.32,11.14-61.41,42.73-64.76,23.16-2.46,45.33,11.85,52.65,33.96,4.23,12.77,3.05,25.67-1.99,36.68l69.99,41.3c8.49-17.19,13.27-36.53,13.27-56.97,0-71.2-57.93-129.13-129.13-129.13s-129.13,57.93-129.13,129.13,57.93,129.13,129.13,129.13c44.12,0,83.14-22.25,106.45-56.12l-71.32-42.11Z"/>
  <path class="cls-2" d="m237.41,286.53c-21.94,0-39.78-17.84-39.78-39.78s17.84-39.78,39.78-39.78,39.78,17.85,39.78,39.78-17.84,39.78-39.78,39.78Zm0-70.25c-16.8,0-30.47,13.67-30.47,30.47s13.67,30.47,30.47,30.47,30.47-13.67,30.47-30.47-13.67-30.47-30.47-30.47Z"/>
  <g>
    <path class="cls-2" d="m438.84,341.19v-81.2h40.86v80.64c0,20.91,9.63,31.36,28.89,31.36,12.45,0,21.45-3.78,26.99-11.34,5.54-7.56,8.32-16,8.32-25.34v-75.32h40.86v139.99h-29.18l-7.3-18.2c-10.12,14.94-26.17,22.4-48.15,22.4-20.24,0-35.51-5.36-45.82-16.1-10.31-10.73-15.47-26.36-15.47-46.9Z"/>
    <path class="cls-2" d="m638.75,383.61c-14.59-13.72-21.89-31.87-21.89-54.46s7-40.46,21.01-53.62c14.01-13.16,32-19.74,53.99-19.74s38.81,6.63,52.24,19.88c13.42,13.26,20.14,29.87,20.14,49.84v11.48h-104.18c.19,10.08,3.36,18.44,9.48,25.06,6.13,6.63,14.15,9.94,24.08,9.94,10.7,0,18.39-2.89,23.05-8.68,2.72-3.36,4.09-6.53,4.09-9.52h42.32c0,8.96-3.5,17.64-10.51,26.04-13.42,16.24-33.08,24.36-58.95,24.36-21.99,0-40.27-6.86-54.86-20.58Zm21.3-70.42h62.74c-.2-8.02-2.97-14.7-8.32-20.02-5.35-5.32-12.89-7.98-22.62-7.98s-17.41,2.66-23.06,7.98c-5.65,5.32-8.56,12-8.75,20.02Z"/>
    <path class="cls-2" d="m787.58,357.15h42.32c0,9.9,8.75,14.84,26.27,14.84,6.42,0,11.38-1.16,14.88-3.5,3.5-2.33,5.25-5.36,5.25-9.1,0-3.17-2.09-5.92-6.27-8.26-4.19-2.33-9.39-4.1-15.61-5.32-6.23-1.21-12.99-2.98-20.28-5.32-7.3-2.33-14.06-4.94-20.28-7.84-6.23-2.89-11.43-7.32-15.61-13.3-4.19-5.97-6.27-13.16-6.27-21.56,0-12.88,5.01-23.1,15.03-30.66,10.02-7.56,24.85-11.34,44.5-11.34,21.4,0,37.65,4.62,48.74,13.86,11.09,9.24,16.63,20.3,16.63,33.18h-42.32c0-5.22-1.85-9-5.54-11.34-3.7-2.33-9.53-3.5-17.51-3.5-11.29,0-16.93,4.2-16.93,12.6,0,4.3,2.92,7.66,8.75,10.08,5.84,2.43,12.89,4.39,21.16,5.88,8.27,1.5,16.49,3.46,24.66,5.88,8.17,2.43,15.18,6.72,21.01,12.88,5.84,6.16,8.75,14.19,8.75,24.08,0,13.07-5.35,23.8-16.05,32.2-10.7,8.4-26.27,12.6-46.69,12.6-23.74,0-41.1-4.52-52.09-13.58-10.99-9.05-16.49-20.2-16.49-33.46Z"/>
    <path class="cls-2" d="m936.42,292.19v-32.2h23.35v-33.6h40.86v33.6h35.9v32.2h-35.9v48.44c0,16.99,4.57,25.48,13.72,25.48h22.18v33.88h-25.97c-16.93,0-29.62-4.52-38.09-13.58-8.46-9.05-12.69-21.51-12.69-37.38v-56.84h-23.35Z"/>
  </g>
  <g>
    <path class="cls-1" d="m1082.79,399.99v-173.52h43.57l45.37,81.51,45.62-81.51h43.57v173.52h-37.17v-120.21l-39.47,71.51h-25.38l-38.96-69.72v118.42h-37.17Z"/>
    <path class="cls-1" d="m1305.65,384.36c-11.02-12.98-16.53-29.39-16.53-49.21s5.47-35.97,16.4-48.44c10.93-12.47,25.12-18.71,42.55-18.71s30.07,7.61,39.47,22.81l7.18-18.97h26.91v128.16h-26.91l-7.95-18.71c-9.23,15.04-22.13,22.56-38.7,22.56s-31.4-6.49-42.42-19.48Zm29.22-77.28c-5.55,6.41-8.33,15.76-8.33,28.07s2.78,21.91,8.33,28.84c5.55,6.92,12.6,10.38,21.15,10.38,8.03,0,14.69-3.24,19.99-9.74,5.29-6.49,8.11-15.64,8.46-27.43v-3.84c-.34-11.79-3.12-20.72-8.33-26.78-5.21-6.06-11.92-9.1-20.12-9.1s-15.6,3.2-21.15,9.61Z"/>
    <path class="cls-1" d="m1457.52,445.36v-173.52h25.63l6.92,19.74c9.4-15.72,22.64-23.58,39.73-23.58,18.46,0,32.89,6.15,43.32,18.45,10.42,12.3,15.63,28.54,15.63,48.7s-5.38,36.44-16.15,49.34c-10.77,12.9-25.04,19.35-42.8,19.35-15.21,0-27.34-6.24-36.4-18.71v60.23h-35.88Zm35.88-110.21c0,11.79,2.48,21.27,7.43,28.45,4.95,7.18,11.96,10.77,21.02,10.77s16.44-3.63,21.66-10.89c5.21-7.26,7.82-16.7,7.82-28.32s-2.56-20.8-7.69-27.55c-5.13-6.75-12.39-10.12-21.79-10.12-8.55,0-15.34,3.5-20.38,10.51-5.04,7.01-7.73,15.55-8.07,25.63v1.54Z"/>
  </g>
</svg>