<?xml version="1.0" encoding="UTF-8"?>
<svg id="Layer_1" data-name="Layer 1" xmlns="http://www.w3.org/2000/svg" viewBox="0 0 288 560">
  <defs>
    <style>
      .cls-1 {
        stroke-width: 0px;
      }
    </style>
  </defs>
  <path class="cls-1" d="m120.84,248.3c-.24,0-.48-.08-.69-.22-.36-.26-.54-.7-.46-1.14l2.87-16.72-12.15-11.84c-.32-.31-.43-.77-.29-1.2.14-.43.5-.73.94-.79l16.79-2.44,7.51-15.22c.2-.4.6-.65,1.05-.65s.85.25,1.05.65h0s7.51,15.22,7.51,15.22l16.79,2.44c.44.06.8.37.94.79s.02.88-.29,1.19l-12.15,11.84,2.87,16.72c.08.44-.1.88-.46,1.14-.36.26-.83.3-1.23.09l-15.02-7.9-15.02,7.9c-.17.09-.36.14-.54.14Zm30.3-1.03h0s0,0,0,0Zm-29.48,0h0s0,0,0,0Zm-1.21-.88s0,0,0,0h0Zm31.9,0h0s0,0,0,0Zm-39.34-28.28l11.26,10.97c.28.27.4.66.33,1.03l-2.66,15.49,13.91-7.31c.34-.18.75-.18,1.09,0l13.91,7.31-2.66-15.49c-.06-.38.06-.76.33-1.03l11.26-10.98-15.55-2.26c-.38-.05-.71-.29-.88-.64l-6.96-14.1-6.96,14.09c-.17.34-.5.58-.88.64l-15.55,2.26Zm9.62,11.67h0s0,0,0,0Zm5.02-15.45s0,0,0,.01h0Zm.63-.45s0,0,0,0h0Zm16.24,0h0,0Zm-8.87-14.27h0s0,0,0,0h0Z"/>
</svg>